<mxfile host="Electron" agent="Mozilla/5.0 (Windows NT 10.0; Win64; x64) AppleWebKit/537.36 (KHTML, like Gecko) draw.io/24.7.17 Chrome/128.0.6613.36 Electron/32.0.1 Safari/537.36" version="24.7.17">
  <diagram name="Страница — 1" id="6pHANtPuxjO4EPtEQiDF">
    <mxGraphModel dx="1221" dy="717" grid="1" gridSize="10" guides="1" tooltips="1" connect="1" arrows="1" fold="1" page="1" pageScale="1" pageWidth="1169" pageHeight="1654" math="0" shadow="0">
      <root>
        <mxCell id="0" />
        <mxCell id="1" parent="0" />
        <mxCell id="XqK7j4EdQwwmgtdQjieb-3" style="edgeStyle=orthogonalEdgeStyle;rounded=0;orthogonalLoop=1;jettySize=auto;html=1;" edge="1" parent="1" source="XqK7j4EdQwwmgtdQjieb-1" target="XqK7j4EdQwwmgtdQjieb-2">
          <mxGeometry relative="1" as="geometry" />
        </mxCell>
        <mxCell id="XqK7j4EdQwwmgtdQjieb-1" value="&lt;font color=&quot;#ff3333&quot;&gt;Start&lt;/font&gt;" style="ellipse;whiteSpace=wrap;html=1;" vertex="1" parent="1">
          <mxGeometry x="525" y="30" width="120" height="80" as="geometry" />
        </mxCell>
        <mxCell id="XqK7j4EdQwwmgtdQjieb-6" style="edgeStyle=orthogonalEdgeStyle;rounded=0;orthogonalLoop=1;jettySize=auto;html=1;" edge="1" parent="1" source="XqK7j4EdQwwmgtdQjieb-2" target="XqK7j4EdQwwmgtdQjieb-4">
          <mxGeometry relative="1" as="geometry" />
        </mxCell>
        <mxCell id="XqK7j4EdQwwmgtdQjieb-2" value="long n,m" style="rounded=0;whiteSpace=wrap;html=1;" vertex="1" parent="1">
          <mxGeometry x="537" y="140" width="95" height="40" as="geometry" />
        </mxCell>
        <mxCell id="XqK7j4EdQwwmgtdQjieb-15" style="edgeStyle=orthogonalEdgeStyle;rounded=0;orthogonalLoop=1;jettySize=auto;html=1;" edge="1" parent="1" source="XqK7j4EdQwwmgtdQjieb-4" target="XqK7j4EdQwwmgtdQjieb-8">
          <mxGeometry relative="1" as="geometry" />
        </mxCell>
        <mxCell id="XqK7j4EdQwwmgtdQjieb-4" value="input n,m" style="shape=parallelogram;perimeter=parallelogramPerimeter;whiteSpace=wrap;html=1;fixedSize=1;" vertex="1" parent="1">
          <mxGeometry x="523" y="220" width="123" height="50" as="geometry" />
        </mxCell>
        <mxCell id="XqK7j4EdQwwmgtdQjieb-24" style="edgeStyle=orthogonalEdgeStyle;rounded=0;orthogonalLoop=1;jettySize=auto;html=1;entryX=0.5;entryY=0;entryDx=0;entryDy=0;" edge="1" parent="1" source="XqK7j4EdQwwmgtdQjieb-8" target="XqK7j4EdQwwmgtdQjieb-16">
          <mxGeometry relative="1" as="geometry" />
        </mxCell>
        <mxCell id="XqK7j4EdQwwmgtdQjieb-8" value="int a" style="rounded=0;whiteSpace=wrap;html=1;" vertex="1" parent="1">
          <mxGeometry x="537" y="305" width="95" height="40" as="geometry" />
        </mxCell>
        <mxCell id="XqK7j4EdQwwmgtdQjieb-9" value="comment1" style="whiteSpace=wrap;html=1;aspect=fixed;" vertex="1" parent="1">
          <mxGeometry x="720" y="290" width="70" height="70" as="geometry" />
        </mxCell>
        <mxCell id="XqK7j4EdQwwmgtdQjieb-12" value="" style="endArrow=none;html=1;rounded=0;entryX=0;entryY=0.5;entryDx=0;entryDy=0;exitX=1;exitY=0.5;exitDx=0;exitDy=0;" edge="1" parent="1" source="XqK7j4EdQwwmgtdQjieb-16" target="XqK7j4EdQwwmgtdQjieb-18">
          <mxGeometry width="50" height="50" relative="1" as="geometry">
            <mxPoint x="632" y="425" as="sourcePoint" />
            <mxPoint x="682" y="375" as="targetPoint" />
          </mxGeometry>
        </mxCell>
        <mxCell id="XqK7j4EdQwwmgtdQjieb-14" value="" style="endArrow=none;html=1;rounded=0;entryX=0;entryY=0.5;entryDx=0;entryDy=0;exitX=1;exitY=0.5;exitDx=0;exitDy=0;" edge="1" parent="1" source="XqK7j4EdQwwmgtdQjieb-8" target="XqK7j4EdQwwmgtdQjieb-9">
          <mxGeometry width="50" height="50" relative="1" as="geometry">
            <mxPoint x="632" y="340" as="sourcePoint" />
            <mxPoint x="682" y="290" as="targetPoint" />
          </mxGeometry>
        </mxCell>
        <mxCell id="XqK7j4EdQwwmgtdQjieb-25" style="edgeStyle=orthogonalEdgeStyle;rounded=0;orthogonalLoop=1;jettySize=auto;html=1;entryX=0.5;entryY=0;entryDx=0;entryDy=0;" edge="1" parent="1" source="XqK7j4EdQwwmgtdQjieb-16" target="XqK7j4EdQwwmgtdQjieb-17">
          <mxGeometry relative="1" as="geometry" />
        </mxCell>
        <mxCell id="XqK7j4EdQwwmgtdQjieb-16" value="bool b" style="rounded=0;whiteSpace=wrap;html=1;" vertex="1" parent="1">
          <mxGeometry x="537" y="380" width="95" height="40" as="geometry" />
        </mxCell>
        <mxCell id="XqK7j4EdQwwmgtdQjieb-27" style="edgeStyle=orthogonalEdgeStyle;rounded=0;orthogonalLoop=1;jettySize=auto;html=1;" edge="1" parent="1" source="XqK7j4EdQwwmgtdQjieb-17" target="XqK7j4EdQwwmgtdQjieb-26">
          <mxGeometry relative="1" as="geometry" />
        </mxCell>
        <mxCell id="XqK7j4EdQwwmgtdQjieb-17" value="bool c" style="rounded=0;whiteSpace=wrap;html=1;" vertex="1" parent="1">
          <mxGeometry x="537.5" y="455" width="95" height="40" as="geometry" />
        </mxCell>
        <mxCell id="XqK7j4EdQwwmgtdQjieb-18" value="comment2" style="whiteSpace=wrap;html=1;aspect=fixed;" vertex="1" parent="1">
          <mxGeometry x="720" y="365" width="70" height="70" as="geometry" />
        </mxCell>
        <mxCell id="XqK7j4EdQwwmgtdQjieb-20" value="comment3" style="whiteSpace=wrap;html=1;aspect=fixed;" vertex="1" parent="1">
          <mxGeometry x="720" y="440" width="70" height="70" as="geometry" />
        </mxCell>
        <mxCell id="XqK7j4EdQwwmgtdQjieb-22" value="" style="endArrow=none;html=1;rounded=0;entryX=0;entryY=0.5;entryDx=0;entryDy=0;exitX=1;exitY=0.5;exitDx=0;exitDy=0;" edge="1" parent="1" source="XqK7j4EdQwwmgtdQjieb-17" target="XqK7j4EdQwwmgtdQjieb-20">
          <mxGeometry width="50" height="50" relative="1" as="geometry">
            <mxPoint x="632.5" y="499.5" as="sourcePoint" />
            <mxPoint x="710.5" y="499.5" as="targetPoint" />
          </mxGeometry>
        </mxCell>
        <mxCell id="XqK7j4EdQwwmgtdQjieb-32" style="edgeStyle=orthogonalEdgeStyle;rounded=0;orthogonalLoop=1;jettySize=auto;html=1;entryX=0.5;entryY=0;entryDx=0;entryDy=0;" edge="1" parent="1" source="XqK7j4EdQwwmgtdQjieb-26" target="XqK7j4EdQwwmgtdQjieb-31">
          <mxGeometry relative="1" as="geometry" />
        </mxCell>
        <mxCell id="XqK7j4EdQwwmgtdQjieb-26" value="Output of n and m" style="shape=parallelogram;perimeter=parallelogramPerimeter;whiteSpace=wrap;html=1;fixedSize=1;" vertex="1" parent="1">
          <mxGeometry x="517.5" y="530" width="135" height="40" as="geometry" />
        </mxCell>
        <mxCell id="XqK7j4EdQwwmgtdQjieb-28" value="comment4" style="whiteSpace=wrap;html=1;aspect=fixed;" vertex="1" parent="1">
          <mxGeometry x="720" y="515" width="70" height="70" as="geometry" />
        </mxCell>
        <mxCell id="XqK7j4EdQwwmgtdQjieb-29" value="" style="endArrow=none;html=1;rounded=0;entryX=0;entryY=0.5;entryDx=0;entryDy=0;exitX=1;exitY=0.5;exitDx=0;exitDy=0;" edge="1" parent="1" source="XqK7j4EdQwwmgtdQjieb-26" target="XqK7j4EdQwwmgtdQjieb-28">
          <mxGeometry width="50" height="50" relative="1" as="geometry">
            <mxPoint x="640" y="580" as="sourcePoint" />
            <mxPoint x="710" y="579.5" as="targetPoint" />
          </mxGeometry>
        </mxCell>
        <mxCell id="XqK7j4EdQwwmgtdQjieb-34" style="edgeStyle=orthogonalEdgeStyle;rounded=0;orthogonalLoop=1;jettySize=auto;html=1;" edge="1" parent="1" source="XqK7j4EdQwwmgtdQjieb-31" target="XqK7j4EdQwwmgtdQjieb-33">
          <mxGeometry relative="1" as="geometry" />
        </mxCell>
        <mxCell id="XqK7j4EdQwwmgtdQjieb-31" value="Output of a,b,c" style="shape=parallelogram;perimeter=parallelogramPerimeter;whiteSpace=wrap;html=1;fixedSize=1;" vertex="1" parent="1">
          <mxGeometry x="517.5" y="600" width="135" height="40" as="geometry" />
        </mxCell>
        <mxCell id="XqK7j4EdQwwmgtdQjieb-33" value="&lt;font color=&quot;#ff3333&quot;&gt;End&lt;/font&gt;" style="ellipse;whiteSpace=wrap;html=1;" vertex="1" parent="1">
          <mxGeometry x="525" y="670" width="120" height="80" as="geometry" />
        </mxCell>
      </root>
    </mxGraphModel>
  </diagram>
</mxfile>
